<svg width="131" height="43" viewBox="0 0 131 43" fill="none" xmlns="http://www.w3.org/2000/svg">
<g id="Asset 7 1" clip-path="url(#clip0_389_8695)">
<g id="Group">
<g id="Layer 2">
<g id="Layer 1">
<path id="Vector" d="M109.346 7.9654H110.431C110.581 7.9445 110.734 7.95877 110.878 8.0071C111.023 8.05544 111.153 8.13651 111.261 8.24395C111.368 8.35139 111.449 8.48228 111.498 8.62634C111.546 8.77039 111.56 8.92369 111.539 9.0742V35.9611C111.561 36.1103 111.547 36.2625 111.501 36.4058C111.454 36.5491 111.374 36.6797 111.269 36.7874C111.163 36.8952 111.035 36.9773 110.892 37.0273C110.75 37.0773 110.598 37.0939 110.449 37.0758H109.364C109.215 37.0944 109.063 37.078 108.921 37.028C108.779 36.9779 108.651 36.8956 108.546 36.7875C108.442 36.6794 108.364 36.5485 108.318 36.4051C108.273 36.2616 108.262 36.1096 108.285 35.9611V35.8771C107.013 36.82 105.486 37.3568 103.904 37.4175H101.368C100.489 37.4287 99.6164 37.2655 98.8006 36.9373C97.9848 36.6092 97.2422 36.1225 96.6156 35.5055C95.9722 34.9032 95.4573 34.177 95.102 33.3705C94.7466 32.564 94.5581 31.6939 94.5478 30.8126C94.5209 30.7337 94.5107 30.65 94.5179 30.5669V22.9791C94.4963 21.953 94.6851 20.9333 95.0727 19.9829C95.4602 19.0325 96.0384 18.1715 96.7714 17.4531C97.4748 16.7031 98.319 16.099 99.2558 15.6753C100.193 15.2516 101.204 15.0166 102.232 14.9838H104.887L105.048 15.2895C105.074 15.2941 105.101 15.2941 105.126 15.2895H105.342C105.426 15.2895 105.498 15.3254 105.498 15.3254H105.684L105.858 15.3734H105.935H106.007H106.043C106.092 15.3582 106.144 15.3582 106.193 15.3734C106.241 15.3984 106.295 15.4088 106.349 15.4033V15.4333C106.371 15.4306 106.394 15.4323 106.416 15.4385C106.437 15.4447 106.457 15.4551 106.475 15.4693H106.505C106.524 15.4636 106.545 15.4636 106.565 15.4693C106.596 15.4767 106.629 15.4767 106.661 15.4693H106.691C106.706 15.4874 106.726 15.5021 106.747 15.5124C106.769 15.5227 106.793 15.5284 106.817 15.5292H106.847C106.882 15.553 106.924 15.5637 106.966 15.5592H106.996C107.004 15.5559 107.012 15.5542 107.02 15.5542C107.029 15.5542 107.037 15.5559 107.044 15.5592C107.056 15.5592 107.122 15.5232 107.122 15.5592V15.5951C107.144 15.5895 107.167 15.5895 107.188 15.5951C107.208 15.6011 107.229 15.6011 107.248 15.5951V15.6251H107.308C107.33 15.6304 107.352 15.6304 107.374 15.6251V15.6551H107.404C107.404 15.685 107.434 15.685 107.494 15.685H107.554C107.561 15.6817 107.569 15.68 107.578 15.68C107.586 15.68 107.594 15.6817 107.602 15.685C107.609 15.6883 107.617 15.69 107.626 15.69C107.634 15.69 107.642 15.6883 107.65 15.685C107.665 15.7019 107.687 15.7125 107.71 15.715C107.752 15.7749 107.805 15.7749 107.805 15.7749L107.865 15.8049C107.898 15.8028 107.93 15.8135 107.955 15.8349L108.021 15.9008V15.9308H108.051C108.071 15.9244 108.092 15.9244 108.111 15.9308C108.153 15.9907 108.207 15.9907 108.207 15.9907C108.214 16.0002 108.223 16.0079 108.233 16.0131C108.244 16.0183 108.255 16.0209 108.267 16.0207V9.0742C108.243 8.92583 108.255 8.77399 108.3 8.63076C108.345 8.48753 108.423 8.35687 108.528 8.24918C108.633 8.1415 108.761 8.05977 108.903 8.0105C109.045 7.96123 109.197 7.94579 109.346 7.9654Z" fill="#3C2510"/>
<path id="Vector_2" d="M62.0145 20.7975C61.8289 19.267 61.0471 17.8714 59.8389 16.9137C58.6178 15.9059 57.0997 15.3268 55.5176 15.2655L55.3138 15.2175H55.176H48.2714C48.1223 15.1939 47.9697 15.2054 47.8257 15.251C47.6818 15.2967 47.5505 15.3753 47.4423 15.4807C47.334 15.586 47.2519 15.7151 47.2023 15.8577C47.1527 16.0004 47.1371 16.1526 47.1566 16.3024C47.1347 16.4541 47.1484 16.6089 47.1966 16.7544C47.2448 16.9 47.3262 17.0323 47.4343 17.141C47.5424 17.2497 47.6743 17.3318 47.8196 17.3808C47.9649 17.4297 48.1196 17.4442 48.2714 17.4232H53.7735L53.9653 17.4711C54.005 17.4773 54.0454 17.4773 54.0851 17.4711C55.2959 17.44 56.4736 17.8682 57.3816 18.6698C57.8335 19.0505 58.196 19.526 58.4436 20.0626C58.6911 20.5991 58.8176 21.1836 58.814 21.7744V23.5185H51.8196C50.9081 23.5238 50.0068 23.7103 49.1682 24.0674C48.3295 24.4245 47.5704 24.9449 46.9349 25.5983C46.2873 26.2357 45.7772 26.9991 45.436 27.8413C45.0948 28.6834 44.9298 29.5866 44.951 30.495C44.9471 31.4062 45.1235 32.3093 45.4703 33.152C45.817 33.9947 46.3271 34.7605 46.9711 35.4051C47.6152 36.0497 48.3805 36.5605 49.223 36.908C50.0654 37.2554 50.9683 37.4326 51.8795 37.4295H54.0552C55.7684 37.4455 57.4398 36.9003 58.814 35.8771V35.9611C58.7895 36.1141 58.8015 36.2707 58.8491 36.4182C58.8967 36.5656 58.9784 36.6998 59.0877 36.8096C59.197 36.9195 59.3307 37.002 59.4779 37.0503C59.6251 37.0987 59.7817 37.1115 59.9348 37.0878H60.9956C61.1479 37.1094 61.303 37.095 61.4487 37.0457C61.5943 36.9964 61.7263 36.9136 61.8342 36.8041C61.942 36.6945 62.0227 36.5611 62.0696 36.4147C62.1165 36.2683 62.1285 36.1129 62.1044 35.9611V21.2051C62.0974 21.0651 62.067 20.9274 62.0145 20.7975ZM58.814 29.4102C58.7976 30.8861 58.2251 32.3015 57.2107 33.3737C56.1963 34.4459 54.8147 35.0959 53.3419 35.1939H52.6587C51.454 35.1287 50.3197 34.6055 49.4881 33.7315C48.6533 32.8626 48.1947 31.6998 48.2115 30.495C48.2082 29.3376 48.6355 28.2203 49.4102 27.3604C50.1735 26.4997 51.2236 25.9458 52.365 25.8021H58.814V29.4102Z" fill="#3C2510"/>
<path id="Vector_3" d="M78.4188 17.3811C79.0495 16.5786 79.8581 15.9335 80.7806 15.4967C81.7031 15.0599 82.7145 14.8432 83.735 14.8638H84.7899C85.7015 14.8491 86.6064 15.0237 87.4471 15.3765C88.2879 15.7293 89.0464 16.2527 89.6746 16.9136C90.9558 18.1919 91.6834 19.9225 91.7004 21.7323V35.9609C91.7229 36.1104 91.7105 36.2631 91.664 36.407C91.6176 36.5508 91.5384 36.682 91.4326 36.79C91.3269 36.8981 91.1975 36.9801 91.0547 37.0297C90.9119 37.0793 90.7595 37.095 90.6095 37.0757H89.5247C89.3748 37.0935 89.2228 37.0768 89.0804 37.0268C88.9379 36.9768 88.8088 36.8949 88.7029 36.7873C88.5971 36.6797 88.5172 36.5492 88.4696 36.406C88.4219 36.2628 88.4076 36.1105 88.4279 35.9609V21.6364C88.4079 20.4989 87.9657 19.4094 87.1873 18.5798C86.4206 17.7506 85.3837 17.2216 84.2624 17.0874C83.1054 17.2147 82.0372 17.7681 81.2657 18.6397C80.4712 19.4898 80.0409 20.617 80.067 21.7803V21.9062C80.0723 21.952 80.0723 21.9982 80.067 22.044C80.067 22.0979 80.067 22.1639 80.025 22.2478V35.9609C80.0476 36.1104 80.0352 36.2631 79.9887 36.407C79.9422 36.5508 79.863 36.682 79.7573 36.79C79.6516 36.8981 79.5222 36.9801 79.3794 37.0297C79.2365 37.0793 79.0841 37.095 78.9342 37.0757H77.8494C77.696 37.1038 77.5382 37.0946 77.3892 37.0488C77.2402 37.003 77.1044 36.9221 76.9933 36.8127C76.8822 36.7034 76.799 36.5689 76.7509 36.4206C76.7027 36.2724 76.691 36.1147 76.7166 35.9609V21.6364C76.7089 20.4941 76.2601 19.399 75.464 18.5798C74.6925 17.7491 73.648 17.2237 72.5212 17.0994C71.9443 17.1738 71.3858 17.3525 70.8729 17.6268C70.3835 17.8885 69.9418 18.231 69.5664 18.6397C69.1911 19.0496 68.8909 19.5223 68.6793 20.0362C68.4604 20.5757 68.3407 21.1503 68.3257 21.7323V35.9609C68.3483 36.1104 68.3358 36.2631 68.2894 36.407C68.2429 36.5508 68.1637 36.682 68.058 36.79C67.9522 36.8981 67.8229 36.9801 67.68 37.0297C67.5372 37.0793 67.3848 37.095 67.2349 37.0757H66.1501C66.002 37.091 65.8524 37.0723 65.7126 37.0209C65.5729 36.9696 65.4467 36.887 65.3438 36.7794C65.2409 36.6718 65.1639 36.5422 65.1187 36.4003C65.0736 36.2585 65.0614 36.1082 65.0832 35.9609V16.3202C65.0606 16.1707 65.0731 16.018 65.1195 15.8742C65.166 15.7303 65.2452 15.5992 65.3509 15.4911C65.4567 15.383 65.5861 15.301 65.7289 15.2514C65.8717 15.2018 66.0241 15.1861 66.174 15.2054H67.2589C67.4885 15.1999 67.7142 15.2655 67.9052 15.3931C68.0962 15.5208 68.243 15.7043 68.3257 15.9186C69.4316 15.2111 70.7168 14.8346 72.0297 14.8338H73.0845C74.1095 14.8204 75.1239 15.0432 76.0489 15.485C76.9739 15.9267 77.7848 16.5755 78.4188 17.3811Z" fill="#3C2510"/>
<path id="Vector_4" d="M108.369 21.6065V29.44C108.345 30.9156 107.765 32.3277 106.745 33.3942C105.725 34.4608 104.34 35.1035 102.867 35.1938H102.268C101.063 35.1286 99.9288 34.6055 99.0972 33.7314C98.2625 32.8625 97.8038 31.6997 97.8206 30.4949V30.4649H97.7907V22.8831C97.7727 22.1403 97.9065 21.4016 98.1837 20.7122C98.4609 20.0228 98.8757 19.3972 99.4029 18.8735C100.459 17.7984 101.878 17.157 103.383 17.0754H104.102C104.102 17.0754 104.102 17.1054 104.162 17.1054H104.288C104.297 17.1097 104.307 17.1119 104.318 17.1119C104.328 17.1119 104.338 17.1097 104.348 17.1054H104.473C104.48 17.1154 104.489 17.1237 104.499 17.1299C104.51 17.1361 104.521 17.14 104.533 17.1414H104.599C104.611 17.1411 104.622 17.1437 104.633 17.1489C104.643 17.1542 104.652 17.1619 104.659 17.1713H104.755C104.775 17.1777 104.796 17.1777 104.815 17.1713H104.875C104.875 17.1713 104.875 17.2013 104.911 17.2013H104.971C104.987 17.2182 105.008 17.2288 105.031 17.2313C105.039 17.2417 105.048 17.2503 105.06 17.2565C105.071 17.2627 105.084 17.2663 105.097 17.2672C105.112 17.2612 105.129 17.2612 105.145 17.2672C105.151 17.2704 105.158 17.2721 105.166 17.2721C105.173 17.2721 105.18 17.2704 105.187 17.2672H105.223C105.223 17.2672 105.223 17.2972 105.253 17.2972H105.342C105.36 17.3145 105.384 17.3251 105.408 17.3272H105.486C105.502 17.344 105.523 17.3547 105.546 17.3571H105.582C105.582 17.3571 105.618 17.3571 105.642 17.3931C105.666 17.4291 105.672 17.3931 105.672 17.4231C105.693 17.4147 105.717 17.4147 105.738 17.4231H105.798L105.828 17.453H105.858V17.483C105.866 17.4926 105.876 17.5003 105.887 17.5055C105.899 17.5106 105.911 17.5132 105.924 17.513V17.5489C105.936 17.5487 105.947 17.5513 105.958 17.5565C105.968 17.5617 105.977 17.5694 105.984 17.5789C106.002 17.5962 106.025 17.6068 106.05 17.6089C106.057 17.6183 106.066 17.626 106.076 17.6313C106.086 17.6365 106.098 17.6391 106.11 17.6388H106.14V17.6748H106.176C106.198 17.6785 106.219 17.689 106.235 17.7048L106.265 17.7347C106.29 17.7368 106.314 17.7474 106.331 17.7647V17.9805C106.356 18.0018 106.389 18.0125 106.421 18.0104V18.0404C106.446 18.0425 106.469 18.0531 106.487 18.0704L106.547 18.1363H106.577L106.643 18.1962V18.2262H106.673V18.2562L106.703 18.2921L106.769 18.3521V18.382L106.829 18.442V18.4779L106.895 18.5379H106.925L106.985 18.5978V18.6338C106.985 18.6338 107.027 18.6338 107.051 18.6937H107.284C107.293 18.7314 107.314 18.7652 107.344 18.7896C107.354 18.7964 107.361 18.8054 107.367 18.8158C107.372 18.8263 107.375 18.8378 107.374 18.8495L107.41 18.8795C107.446 18.9214 107.47 18.9514 107.47 18.9754C107.487 18.9911 107.498 19.0124 107.5 19.0353C107.542 19.0773 107.566 19.1072 107.566 19.1312C107.566 19.1552 107.626 19.2031 107.626 19.2211L107.656 19.2511C107.656 19.2511 107.656 19.305 107.716 19.347C107.727 19.3834 107.751 19.415 107.782 19.4369C107.789 19.4583 107.789 19.4814 107.782 19.5028H107.812C107.806 19.5223 107.806 19.5432 107.812 19.5627C107.815 19.5846 107.815 19.6068 107.812 19.6287C107.823 19.6651 107.846 19.6967 107.878 19.7186C107.878 19.7845 107.878 19.8145 107.938 19.8145C107.958 19.84 107.969 19.8718 107.968 19.9044V19.9403C107.957 19.9693 107.957 20.0013 107.968 20.0302C107.978 20.038 107.987 20.0479 107.993 20.0593C107.999 20.0706 108.003 20.0832 108.004 20.0962H108.034V20.216C108.046 20.2571 108.046 20.3009 108.034 20.3419H108.064C108.062 20.3764 108.073 20.4102 108.093 20.4378V20.5277L108.129 20.5637V20.6536C108.124 20.6752 108.124 20.6979 108.129 20.7195C108.135 20.7391 108.135 20.7598 108.129 20.7794C108.127 20.7993 108.127 20.8195 108.129 20.8394C108.135 20.861 108.135 20.8836 108.129 20.9053V21.0252C108.14 21.0563 108.14 21.09 108.129 21.1211V21.2469C108.124 21.2665 108.124 21.2872 108.129 21.3069C108.132 21.3268 108.132 21.3469 108.129 21.3668L108.369 21.6065Z" fill="white"/>
<path id="Vector_5" d="M130.911 20.7975C130.725 19.2655 129.941 17.8691 128.729 16.9137C127.511 15.9048 125.994 15.3255 124.414 15.2655L124.21 15.2176H124.072H117.168C117.018 15.1942 116.865 15.2058 116.721 15.2514C116.577 15.2971 116.446 15.3756 116.337 15.4808C116.228 15.5859 116.146 15.7149 116.095 15.8575C116.045 16 116.028 16.1523 116.047 16.3024C116.025 16.4547 116.038 16.6101 116.087 16.7562C116.135 16.9022 116.217 17.035 116.326 17.1438C116.435 17.2526 116.568 17.3346 116.714 17.3831C116.86 17.4316 117.015 17.4453 117.168 17.4232H122.67L122.855 17.4711C122.897 17.477 122.94 17.477 122.981 17.4711C124.192 17.44 125.37 17.8683 126.278 18.6698C126.729 19.0509 127.09 19.5266 127.337 20.0631C127.584 20.5997 127.709 21.184 127.704 21.7745V23.5186H120.71C119.799 23.5246 118.899 23.7115 118.062 24.0686C117.224 24.4256 116.466 24.9456 115.831 25.5983C115.185 26.2332 114.675 26.9934 114.333 27.8323C113.99 28.6712 113.823 29.5712 113.841 30.477C113.836 31.389 114.013 32.2929 114.359 33.1364C114.706 33.9799 115.217 34.7462 115.862 35.3911C116.506 36.036 117.273 36.5466 118.116 36.8934C118.96 37.2402 119.864 37.4163 120.776 37.4115H122.951C124.663 37.4303 126.333 36.8847 127.704 35.8592V35.9611C127.683 36.113 127.698 36.2676 127.747 36.4129C127.795 36.5582 127.878 36.6901 127.986 36.7982C128.095 36.9064 128.227 36.9877 128.373 37.0359C128.518 37.0841 128.673 37.0978 128.825 37.0759H129.88C130.032 37.0978 130.186 37.0841 130.332 37.0359C130.477 36.9877 130.61 36.9064 130.718 36.7982C130.827 36.6901 130.909 36.5582 130.958 36.4129C131.007 36.2676 131.022 36.113 131.001 35.9611V21.2051C130.993 21.0652 130.963 20.9274 130.911 20.7975ZM127.704 29.4102C127.687 30.891 127.11 32.3105 126.09 33.3834C125.069 34.4563 123.68 35.1032 122.202 35.1939H121.549C120.344 35.1276 119.211 34.6046 118.378 33.7315C117.577 32.8692 117.124 31.7403 117.108 30.5633C117.091 29.3863 117.512 28.245 118.288 27.3604C119.052 26.4997 120.102 25.9458 121.243 25.8021H127.704V29.4102Z" fill="#3C2510"/>
<g id="Vector_6" style="mix-blend-mode:multiply" opacity="0.81">
<path d="M16.1105 21.163C15.8541 22.2013 15.2948 23.1399 14.5037 23.8596C13.7127 24.5794 12.7255 25.0477 11.6676 25.2051C10.6098 25.3626 9.52905 25.202 8.56268 24.7438C7.59631 24.2856 6.78796 23.5505 6.24032 22.6318C5.69268 21.7132 5.43049 20.6525 5.48704 19.5845C5.5436 18.5165 5.91635 17.4894 6.55794 16.6338C7.19953 15.7781 8.08101 15.1325 9.09036 14.7789C10.0997 14.4253 11.1914 14.3798 12.2267 14.648C12.9102 14.8195 13.5532 15.1243 14.1186 15.5448C14.6841 15.9654 15.161 16.4935 15.5218 17.0988C15.8827 17.7041 16.1204 18.3747 16.2214 19.0722C16.3225 19.7696 16.2848 20.4801 16.1105 21.163Z" fill="#FEE43F"/>
</g>
<path id="Vector_7" d="M8.54732 24.987C7.29163 24.3813 6.30379 23.3332 5.77328 22.044C5.24278 20.7547 5.20697 19.3149 5.67272 18.0009C6.13847 16.6868 7.07299 15.591 8.29701 14.9236C9.52104 14.2562 10.9484 14.0642 12.3052 14.3845C12.6389 14.4677 12.964 14.5821 13.2762 14.7261C14.571 15.3082 15.5997 16.3557 16.1582 17.6609C16.7166 18.9661 16.764 20.4335 16.2909 21.772C15.8178 23.1104 14.8589 24.2222 13.6043 24.8866C12.3498 25.5509 10.8913 25.7194 9.51827 25.3586C9.18359 25.2657 8.85849 25.1413 8.54732 24.987ZM13.0185 15.2535C12.7424 15.1215 12.4531 15.0191 12.1554 14.9479C10.9322 14.63 9.63417 14.7827 8.5181 15.3758C7.40203 15.9689 6.54913 16.9592 6.12805 18.1509C5.70698 19.3426 5.74838 20.6488 6.24407 21.8115C6.73976 22.9741 7.65365 23.9084 8.80504 24.4296C9.08155 24.5607 9.37074 24.6631 9.66811 24.7353C10.8914 25.0531 12.1894 24.9004 13.3054 24.3073C14.4215 23.7142 15.2744 22.7239 15.6955 21.5322C16.1165 20.3406 16.0751 19.0343 15.5794 17.8717C15.0838 16.7091 14.1699 15.7748 13.0185 15.2535Z" fill="#3C2510"/>
<path id="Vector_8" d="M5.99415 22.3437C6.27615 21.3103 6.86648 20.3874 7.68642 19.698C8.50637 19.0087 9.51697 18.5857 10.5835 18.4854C11.65 18.3852 12.7217 18.6124 13.6558 19.1368C14.5898 19.6612 15.3418 20.4579 15.8115 21.4207C15.9417 20.3527 15.7874 19.2693 15.3643 18.2801C14.9412 17.2909 14.2643 16.4311 13.4021 15.7875C12.54 15.144 11.5231 14.7396 10.4544 14.6153C9.38574 14.4911 8.3032 14.6513 7.31635 15.0798C6.32951 15.5084 5.47337 16.19 4.8346 17.0557C4.19582 17.9214 3.79706 18.9405 3.67869 20.0099C3.56031 21.0792 3.72651 22.1608 4.16047 23.1453C4.59444 24.1298 5.28076 24.9821 6.14998 25.6161C5.74781 24.5704 5.69317 23.4229 5.99415 22.3437Z" fill="#FEE43F"/>
<path id="Vector_9" d="M5.9938 25.904H5.93986C4.89262 25.1259 4.10386 24.0507 3.67626 22.8181C3.24867 21.5856 3.20204 20.2529 3.54246 18.9934C3.99037 17.3462 5.07195 15.9432 6.55093 15.0909C8.02991 14.2385 9.78611 14.0061 11.4359 14.4444C11.8163 14.5454 12.1857 14.684 12.5387 14.8579C13.7458 15.4392 14.7412 16.383 15.3859 17.5574C16.0306 18.7319 16.2924 20.0784 16.1348 21.4088C16.1374 21.465 16.1249 21.5208 16.0988 21.5707C16.079 21.6122 16.0511 21.6493 16.0168 21.68C15.9825 21.7107 15.9424 21.7342 15.8989 21.7493C15.8554 21.7643 15.8094 21.7706 15.7634 21.7677C15.7175 21.7648 15.6726 21.7528 15.6313 21.7325C15.5598 21.6996 15.5024 21.6422 15.4695 21.5707C15.1582 20.9449 14.7188 20.3915 14.1798 19.9465C13.6408 19.5015 13.0143 19.1747 12.3409 18.9875C11.0828 18.6457 9.74059 18.8165 8.60819 19.4624C7.4758 20.1084 6.6456 21.1768 6.29947 22.4337C6.02471 23.4347 6.07721 24.4974 6.4493 25.4664C6.47572 25.5373 6.47832 25.6148 6.45668 25.6873C6.43505 25.7598 6.39038 25.8232 6.32943 25.868C6.28139 25.9025 6.2252 25.924 6.16637 25.9303C6.10753 25.9366 6.04807 25.9275 5.9938 25.904ZM12.239 15.4873C11.924 15.3337 11.5948 15.2113 11.2561 15.1216C10.5261 14.9239 9.76422 14.872 9.01413 14.9689C8.26403 15.0659 7.54041 15.3098 6.88466 15.6866C6.2289 16.0635 5.65388 16.5659 5.19249 17.1652C4.7311 17.7645 4.3924 18.4489 4.19575 19.1792C3.94537 20.1168 3.93491 21.1023 4.16533 22.0449C4.39576 22.9876 4.85966 23.8571 5.51432 24.5734C5.37104 23.6479 5.462 22.7012 5.77889 21.8199C6.09578 20.9386 6.62849 20.1508 7.32834 19.5284C8.02819 18.9061 8.87286 18.469 9.78515 18.2573C10.6974 18.0455 11.6482 18.0658 12.5507 18.3162C13.7119 18.6367 14.7406 19.319 15.4875 20.2641C15.417 19.2517 15.0792 18.2761 14.5085 17.4369C13.9378 16.5977 13.1547 15.9249 12.239 15.4873Z" fill="#3C2510"/>
<path id="Vector_10" d="M24.6397 20.6176C24.2348 22.2119 23.366 23.6502 22.1433 24.7506C20.9206 25.8509 19.3989 26.5637 17.7709 26.7989C16.1429 27.034 14.4817 26.7809 12.9976 26.0716C11.5135 25.3622 10.2732 24.2285 9.43369 22.8139C8.59418 21.3994 8.19321 19.7675 8.28152 18.125C8.36983 16.4824 8.94346 14.903 9.92979 13.5866C10.9161 12.2702 12.2708 11.276 13.8224 10.7299C15.374 10.1837 17.0528 10.1102 18.6462 10.5185C20.7789 11.0651 22.6077 12.4353 23.7314 14.3287C24.855 16.222 25.1817 18.4837 24.6397 20.6176Z" fill="#FEE43F"/>
<path id="Vector_11" d="M12.9758 26.4134C11.0616 25.4873 9.55639 23.8875 8.74838 21.9206C7.94038 19.9537 7.88641 17.7578 8.59681 15.7535C9.3072 13.7493 10.732 12.0775 12.5984 11.0585C14.4648 10.0395 16.6414 9.74481 18.7116 10.2309C19.2173 10.3616 19.7106 10.536 20.186 10.7523C22.1503 11.6468 23.7081 13.2447 24.5524 15.231C25.3966 17.2174 25.466 19.448 24.7468 21.483C24.0276 23.5179 22.572 25.2096 20.6671 26.2243C18.7622 27.2391 16.5463 27.5032 14.4562 26.9648C13.9458 26.83 13.45 26.6453 12.9758 26.4134ZM19.9163 11.3157C19.4863 11.114 19.0389 10.9515 18.5797 10.8303C16.6538 10.3514 14.6185 10.607 12.8708 11.5473C11.1231 12.4876 9.78829 14.0452 9.12668 15.9163C8.46507 17.7873 8.52409 19.8378 9.29223 21.6677C10.0604 23.4976 11.4826 24.9758 13.2815 25.814C13.7219 26.0138 14.1792 26.1743 14.648 26.2935C16.5739 26.7724 18.6092 26.5167 20.3569 25.5764C22.1046 24.6361 23.4394 23.0786 24.101 21.2075C24.7626 19.3364 24.7036 17.286 23.9355 15.4561C23.1673 13.6262 21.7451 12.148 19.9462 11.3097L19.9163 11.3157Z" fill="#3C2510"/>
<path id="Vector_12" d="M31.766 10.2669C32.7908 9.80536 33.3962 8.91832 33.1385 8.17513C32.8987 7.52783 32.0896 7.1922 31.1666 7.30008C31.3524 6.40105 31.1067 5.57395 30.4893 5.28626C29.7641 4.95062 28.7932 5.49004 28.2358 6.48496C27.8044 6.26361 27.3577 6.07333 26.8992 5.91558C25.4412 5.39975 23.8582 5.35359 22.3726 5.78359C20.887 6.21358 19.5733 7.09812 18.6162 8.31298C20.0846 8.44583 21.4902 8.97101 22.6859 9.83354C23.8817 10.6961 24.8235 11.8642 25.4128 13.2157C26.3538 12.886 30.2616 12.5444 32.0057 16.8118C32.6008 14.6574 32.5171 12.3719 31.766 10.2669Z" fill="#68CCE2"/>
<path id="Vector_13" d="M31.9515 17.0935C31.9043 17.0836 31.8603 17.0619 31.8236 17.0304C31.787 16.999 31.7588 16.9589 31.7417 16.9137C31.4407 16.0365 30.9157 15.2531 30.2187 14.6412C29.5217 14.0294 28.6769 13.6103 27.7681 13.4255C27.0204 13.2671 26.2457 13.2897 25.5085 13.4914C25.4377 13.5152 25.3604 13.5111 25.2925 13.4799C25.2245 13.4488 25.171 13.3928 25.1429 13.3236C24.6275 12.1477 23.8348 11.1143 22.8328 10.3116C21.8307 9.50892 20.6492 8.96096 19.3891 8.7146C19.1221 8.66115 18.8518 8.62511 18.58 8.60672C18.5272 8.60261 18.4765 8.58428 18.4332 8.55368C18.3899 8.52308 18.3558 8.48135 18.3343 8.4329C18.3146 8.38463 18.3081 8.33199 18.3155 8.28038C18.3228 8.22876 18.3438 8.18004 18.3762 8.13922C19.2527 7.03008 20.4178 6.18379 21.7436 5.69322C23.0694 5.20265 24.5047 5.08675 25.8921 5.35824C26.2574 5.43365 26.6178 5.53174 26.9709 5.65192C27.3572 5.78592 27.7354 5.94201 28.1037 6.11941C28.3115 5.73193 28.6268 5.41269 29.0117 5.20005C29.3966 4.98741 29.8347 4.89041 30.2733 4.92071C30.3807 4.93989 30.4854 4.9721 30.585 5.01661C30.9193 5.21153 31.1852 5.50509 31.3461 5.85703C31.5071 6.20898 31.5552 6.60209 31.484 6.98248C31.663 6.98531 31.8415 7.00335 32.0174 7.03642C32.316 7.0726 32.5994 7.18776 32.8386 7.37003C33.0777 7.55229 33.2639 7.79506 33.378 8.07329C33.6597 8.8944 33.1262 9.84138 32.1014 10.4048C32.7809 12.5031 32.8392 14.7531 32.2692 16.8837C32.2526 16.9413 32.2181 16.9922 32.1707 17.0288C32.1233 17.0655 32.0654 17.086 32.0055 17.0875C31.9877 17.0912 31.9697 17.0932 31.9515 17.0935ZM27.8819 12.8561C28.7447 13.0236 29.5574 13.3875 30.2569 13.9197C30.9564 14.4518 31.524 15.1379 31.9156 15.9248C32.2834 14.0702 32.1341 12.1502 31.484 10.3748C31.4692 10.3406 31.4614 10.3038 31.4609 10.2665C31.4605 10.2293 31.4674 10.1923 31.4814 10.1577C31.4953 10.1232 31.5159 10.0917 31.5421 10.0652C31.5683 10.0387 31.5995 10.0176 31.6339 10.0032C32.5269 9.60164 33.0483 8.85844 32.8326 8.27108C32.7508 8.08939 32.6222 7.93264 32.4601 7.81683C32.2979 7.70101 32.108 7.63026 31.9096 7.61179C31.6694 7.57222 31.4245 7.57222 31.1844 7.61179C31.1392 7.61781 31.0932 7.61276 31.0504 7.59711C31.0076 7.58145 30.9693 7.55564 30.9386 7.52189C30.9071 7.4877 30.8841 7.4465 30.8716 7.4017C30.8591 7.35689 30.8574 7.30975 30.8667 7.26417C31.0285 6.47303 30.8247 5.79576 30.3513 5.574C29.7819 5.31029 28.9428 5.80775 28.4753 6.66482C28.4375 6.7303 28.3759 6.77868 28.3033 6.79989C28.2308 6.8211 28.1528 6.81351 28.0857 6.7787C27.6671 6.56153 27.2323 6.37718 26.7851 6.22729C26.4549 6.10381 26.1165 6.00367 25.7722 5.92762C24.58 5.69664 23.3485 5.77416 22.1947 6.15283C21.0408 6.5315 20.0029 7.19876 19.1794 8.09127L19.491 8.14522C20.8039 8.40148 22.0383 8.96231 23.0949 9.7826C24.1514 10.6029 25.0007 11.6597 25.5744 12.8681C26.3349 12.7083 27.1198 12.7042 27.8819 12.8561Z" fill="#3C2510"/>
<path id="Vector_14" d="M11.6695 16.1825C11.8847 15.8318 12.199 15.5528 12.5727 15.3807C12.9465 15.2087 13.3629 15.1514 13.7692 15.216C14.1755 15.2807 14.5535 15.4644 14.8554 15.744C15.1573 16.0235 15.3695 16.3863 15.4651 16.7865C15.5608 17.1867 15.5356 17.6062 15.3927 17.9921C15.2498 18.3779 14.9957 18.7127 14.6626 18.9541C14.3294 19.1955 13.9321 19.3327 13.5209 19.3482C13.1098 19.3637 12.7033 19.257 12.3528 19.0414C12.1197 18.899 11.9171 18.712 11.7565 18.491C11.596 18.2701 11.4806 18.0196 11.4172 17.7539C11.3537 17.4883 11.3433 17.2127 11.3866 16.9431C11.4299 16.6734 11.5261 16.4149 11.6695 16.1825Z" fill="#FBE9A7"/>
<path id="Vector_15" opacity="0.81" d="M25.5322 8.22897C25.5322 8.46605 25.4619 8.69781 25.3302 8.89494C25.1984 9.09206 25.0112 9.2457 24.7922 9.33643C24.5732 9.42716 24.3321 9.45089 24.0996 9.40464C23.8671 9.35839 23.6535 9.24423 23.4859 9.07658C23.3182 8.90894 23.2041 8.69535 23.1578 8.46283C23.1115 8.2303 23.1353 7.98929 23.226 7.77025C23.3167 7.55122 23.4704 7.36401 23.6675 7.23229C23.8646 7.10058 24.0964 7.03027 24.3335 7.03027C24.6514 7.03027 24.9563 7.15656 25.1811 7.38136C25.4059 7.60616 25.5322 7.91106 25.5322 8.22897Z" fill="#B9E3E6"/>
<path id="Vector_16" d="M24.0584 9.67341C23.6914 9.6072 23.3628 9.40489 23.1385 9.10692C22.9142 8.80895 22.8106 8.43729 22.8485 8.06625C22.8863 7.69521 23.0629 7.35214 23.3427 7.10562C23.6226 6.8591 23.9852 6.72731 24.3581 6.7366C24.4457 6.72745 24.5341 6.72745 24.6218 6.7366C24.9815 6.81009 25.3011 7.01461 25.5184 7.31046C25.7358 7.60632 25.8355 7.97239 25.7982 8.33761C25.7608 8.70284 25.5891 9.04116 25.3163 9.28689C25.0436 9.53263 24.6893 9.66825 24.3221 9.66742C24.2345 9.6756 24.1463 9.67761 24.0584 9.67341ZM24.5139 7.33595H24.3521C24.1137 7.31131 23.8752 7.3824 23.6892 7.53358C23.5032 7.68475 23.3848 7.90364 23.3602 8.14207C23.3355 8.38051 23.4066 8.61897 23.5578 8.80499C23.709 8.99101 23.9279 9.10936 24.1663 9.134H24.3281C24.5666 9.15864 24.805 9.08755 24.991 8.93637C25.1771 8.78519 25.2954 8.56631 25.32 8.32787C25.3447 8.08944 25.2736 7.85098 25.1224 7.66496C24.9712 7.47893 24.7524 7.36059 24.5139 7.33595Z" fill="#3C2510"/>
<path id="Vector_17" d="M11.3397 32.6106C11.1959 34.043 13.2277 38.1246 17.549 36.806C16.5886 35.8367 15.8533 34.6678 15.3955 33.3823C14.9377 32.0968 14.7684 30.7263 14.8999 29.3681C12.8493 29.5616 10.7993 28.9941 9.1401 27.7738C8.55038 27.3354 8.01871 26.8238 7.55781 26.2515C7.46191 26.4493 7.38999 26.659 7.30009 26.8508C5.71181 30.5668 9.9672 32.7364 11.3397 32.6106Z" fill="#68CCE2"/>
<path id="Vector_18" d="M13.6171 36.7281C12.9285 36.3211 12.3417 35.7625 11.9014 35.0947C11.461 34.427 11.1787 33.6676 11.0759 32.8743C10.4016 32.7858 9.75282 32.5593 9.16995 32.209C7.44981 31.2141 5.9874 29.2542 7.06023 26.7489C7.10219 26.659 7.13216 26.5691 7.16812 26.4852C7.20408 26.4013 7.26401 26.2395 7.31796 26.1256C7.33585 26.0845 7.36396 26.0485 7.39962 26.0213C7.43528 25.994 7.47731 25.9763 7.52173 25.9698C7.56645 25.9655 7.61153 25.972 7.65324 25.9887C7.69494 26.0053 7.73205 26.0317 7.76147 26.0657C8.2044 26.6326 8.72031 27.1384 9.29581 27.5701C9.54071 27.749 9.79478 27.9151 10.057 28.0675C11.5091 28.9026 13.1836 29.2689 14.8518 29.1164C14.8904 29.1128 14.9293 29.1179 14.9656 29.1314C15.0019 29.1449 15.0347 29.1664 15.0616 29.1943C15.0881 29.2219 15.1082 29.255 15.1206 29.2913C15.1331 29.3275 15.1374 29.366 15.1335 29.4041C14.9985 30.7292 15.1597 32.0679 15.6055 33.3231C16.0512 34.5784 16.7702 35.7189 17.7107 36.6622C17.7415 36.6943 17.7637 36.7336 17.7752 36.7766C17.7868 36.8196 17.7872 36.8647 17.7766 36.9079C17.7657 36.952 17.7433 36.9924 17.7117 37.025C17.6801 37.0576 17.6405 37.0813 17.5968 37.0937C16.9451 37.3161 16.2537 37.3984 15.568 37.3354C14.8822 37.2724 14.2175 37.0655 13.6171 36.7281ZM11.4715 32.3649L11.5254 32.4068C11.5526 32.434 11.5732 32.467 11.5857 32.5034C11.5982 32.5397 11.6021 32.5784 11.5973 32.6166C11.5254 33.3838 12.2386 35.3077 13.8808 36.2546C14.8462 36.799 15.9859 36.9452 17.0574 36.6622C16.1954 35.7143 15.5343 34.6016 15.1141 33.3913C14.6938 32.1809 14.523 30.898 14.612 29.6198C12.9364 29.7139 11.2697 29.316 9.81725 28.4751C9.53165 28.3219 9.25546 28.1517 8.99014 27.9656C8.4958 27.6037 8.04169 27.1898 7.63561 26.731L7.54571 26.9527C6.34701 29.7157 8.69047 31.328 9.43366 31.7475C9.99581 32.1126 10.6459 32.3196 11.3156 32.3469C11.3682 32.338 11.4223 32.3442 11.4715 32.3649Z" fill="#3C2510"/>
<g id="Vector_19" style="mix-blend-mode:multiply" opacity="0.81">
<path d="M37.106 24.4416C36.3872 24.581 35.6444 24.5298 34.9515 24.2933C34.2586 24.0567 33.6397 23.6429 33.1562 23.093C33.4227 22.4102 33.8633 21.8091 34.4343 21.3496C35.0053 20.89 35.6867 20.5881 36.4107 20.4739C37.1162 20.3817 37.8336 20.4574 38.5043 20.6949C39.175 20.9324 39.7802 21.3248 40.2705 21.8404C40.0207 22.5154 39.596 23.1119 39.04 23.5689C38.484 24.0259 37.8166 24.3271 37.106 24.4416Z" fill="#B5D334"/>
</g>
<path id="Vector_20" d="M35.5478 24.7832C34.5166 24.6124 33.5774 24.0866 32.8927 23.2968C32.8578 23.2538 32.8345 23.2026 32.8251 23.148C32.8156 23.0934 32.8203 23.0373 32.8387 22.9851C33.1224 22.2444 33.5966 21.5917 34.2132 21.0929C34.8299 20.5941 35.5673 20.2668 36.3509 20.1442C36.825 20.0633 37.3093 20.0633 37.7834 20.1442C38.8252 20.3404 39.7803 20.8557 40.5164 21.6186C40.5565 21.6611 40.5843 21.7135 40.597 21.7705C40.6096 21.8275 40.6067 21.8868 40.5883 21.9423C40.3223 22.6774 39.8638 23.3276 39.2608 23.8252C38.6578 24.3228 37.9323 24.6495 37.1601 24.7712C36.6273 24.8672 36.082 24.8713 35.5478 24.7832ZM33.564 23.0211C34.1368 23.5972 34.8736 23.9824 35.6737 24.1239C36.1359 24.2019 36.6079 24.2019 37.0702 24.1239C37.6861 24.0224 38.2672 23.7694 38.761 23.3875C39.2549 23.0056 39.646 22.5069 39.8991 21.9363C39.2826 21.36 38.516 20.9694 37.6875 20.8095C37.2909 20.7406 36.8854 20.7406 36.4888 20.8095C35.8572 20.9097 35.26 21.1639 34.7499 21.5497C34.2398 21.9354 33.8325 22.4407 33.564 23.0211Z" fill="#3C2510"/>
<g id="Vector_21" style="mix-blend-mode:multiply" opacity="0.81">
<path d="M3.59587 35.901C2.93142 35.8825 2.28332 35.6908 1.71567 35.345C1.14803 34.9991 0.680512 34.5111 0.359375 33.9291C0.730701 33.3777 1.23955 32.9329 1.83558 32.6385C2.43162 32.3442 3.09417 32.2106 3.75769 32.2509C4.40085 32.3072 5.02163 32.5146 5.56946 32.8562C6.1173 33.1978 6.57671 33.664 6.91027 34.2168C6.55707 34.7665 6.06388 35.2122 5.48139 35.5082C4.89889 35.8042 4.2481 35.9398 3.59587 35.901Z" fill="#B5D334"/>
</g>
<path id="Vector_22" d="M2.10996 35.9611C1.22277 35.6008 0.48783 34.9442 0.0302192 34.1031C0.00398753 34.0553 -0.00976563 34.0017 -0.00976562 33.9472C-0.00976563 33.8928 0.00398753 33.8392 0.0302192 33.7914C0.429657 33.1855 0.981924 32.6958 1.63123 32.3716C2.28054 32.0475 3.00389 31.9005 3.72821 31.9454C4.16824 31.9643 4.60191 32.0575 5.01082 32.2211C5.91057 32.5915 6.67296 33.2324 7.19245 34.0551C7.21923 34.1059 7.23322 34.1625 7.23322 34.2199C7.23322 34.2774 7.21923 34.334 7.19245 34.3848C6.81144 34.9849 6.27749 35.4728 5.64549 35.7983C5.01348 36.1238 4.30621 36.2751 3.59635 36.2368C3.08878 36.2305 2.58603 36.1372 2.10996 35.9611ZM0.731459 33.9772C1.12354 34.5862 1.69234 35.0609 2.36169 35.3377C2.75715 35.4846 3.17457 35.5636 3.59635 35.5715C4.15359 35.6053 4.71042 35.499 5.21606 35.2624C5.72171 35.0258 6.16008 34.6664 6.49121 34.2169C6.06819 33.6 5.48053 33.1141 4.79505 32.8145C4.45785 32.6759 4.09857 32.5988 3.7342 32.5867C3.16007 32.5462 2.58489 32.6494 2.06063 32.8869C1.53637 33.1245 1.07955 33.4889 0.731459 33.9472V33.9772Z" fill="#3C2510"/>
<g id="Vector_23" style="mix-blend-mode:multiply" opacity="0.81">
<path d="M6.73112 38.5681C6.75007 37.836 6.96032 37.1217 7.34095 36.496C7.72158 35.8704 8.25934 35.3553 8.90077 35.002C9.50986 35.4101 10.0014 35.9707 10.3263 36.6279C10.6513 37.2852 10.7983 38.0161 10.7528 38.7479C10.6906 39.4565 10.4616 40.1403 10.0845 40.7435C9.70744 41.3466 9.19294 41.8519 8.58311 42.2181C7.97774 41.8294 7.487 41.2862 7.16147 40.6446C6.83593 40.003 6.68738 39.2862 6.73112 38.5681Z" fill="#B5D334"/>
</g>
<path id="Vector_24" d="M8.45703 42.554H8.42107C7.75907 42.1376 7.22155 41.5504 6.86506 40.8543C6.50856 40.1582 6.34627 39.3788 6.39527 38.5983C6.41533 37.805 6.6442 37.0311 7.05879 36.3545C7.47338 35.6779 8.05904 35.1225 8.75671 34.7445C8.80585 34.7192 8.86029 34.7061 8.91553 34.7061C8.97078 34.7061 9.02522 34.7192 9.07436 34.7445C9.73471 35.1836 10.2682 35.7884 10.6216 36.4983C10.975 37.2082 11.1359 37.9985 11.0882 38.7901C11.0282 39.5571 10.7845 40.2985 10.3776 40.9515C9.97078 41.6045 9.41277 42.15 8.75071 42.542C8.70537 42.5646 8.65576 42.5773 8.60515 42.5794C8.55454 42.5814 8.50407 42.5728 8.45703 42.554ZM8.88257 35.4217C8.34312 35.7637 7.89665 36.2338 7.58293 36.7901C7.2692 37.3464 7.09798 37.9717 7.08452 38.6103C7.04496 39.2343 7.16377 39.8582 7.42993 40.4241C7.69608 40.9899 8.10093 41.4793 8.60687 41.8468C9.11897 41.4987 9.54639 41.0402 9.8576 40.5049C10.1688 39.9696 10.3558 39.3713 10.4049 38.7541C10.4484 38.1124 10.3322 37.4699 10.0665 36.8842C9.8008 36.2985 9.39403 35.7877 8.88257 35.3978V35.4217Z" fill="#3C2510"/>
<g id="Vector_25" style="mix-blend-mode:multiply" opacity="0.81">
<path d="M12.6588 4.28541C12.5194 3.56663 12.5705 2.82387 12.8071 2.13097C13.0436 1.43806 13.4574 0.819134 14.0073 0.335693C14.6909 0.602619 15.2925 1.04418 15.7521 1.61631C16.2117 2.18843 16.5132 2.8711 16.6265 3.59616C16.7186 4.30168 16.6429 5.01899 16.4055 5.68971C16.168 6.36043 15.7755 6.96561 15.26 7.45597C14.5842 7.20562 13.9872 6.78005 13.5301 6.2229C13.073 5.66576 12.7723 4.99708 12.6588 4.28541Z" fill="#B5D334"/>
</g>
<path id="Vector_26" d="M15.2055 7.79156H15.1635C14.4281 7.52685 13.7771 7.0697 13.2785 6.46776C12.7798 5.86582 12.4518 5.14114 12.3286 4.36927C12.1709 3.58817 12.2226 2.77926 12.4784 2.02456C12.7342 1.26987 13.1849 0.596223 13.785 0.0719308C13.828 0.0307878 13.8816 0.00230557 13.9397 -0.0103834C13.9979 -0.0230723 14.0584 -0.0194765 14.1147 8.73581e-06C14.8554 0.283691 15.5081 0.757816 16.0069 1.3745C16.5057 1.99118 16.833 2.72857 16.9556 3.5122C17.0651 4.27801 16.9889 5.05893 16.7333 5.7891C16.4778 6.51927 16.0504 7.17729 15.4872 7.70765C15.4494 7.74172 15.4046 7.76694 15.3558 7.78145C15.3071 7.79597 15.2557 7.79942 15.2055 7.79156ZM14.0787 0.719229C13.6217 1.16957 13.2831 1.7258 13.0928 2.33851C12.9025 2.95122 12.8664 3.60144 12.9879 4.23142C13.0893 4.84739 13.3424 5.42845 13.7243 5.92229C14.1062 6.41612 14.6049 6.80722 15.1755 7.06036C15.6078 6.61225 15.9331 6.07219 16.1272 5.48059C16.3213 4.88899 16.3791 4.26115 16.2963 3.64406C16.1954 3.01186 15.9403 2.41426 15.5535 1.90411C15.1668 1.39397 14.6602 0.987011 14.0787 0.719229Z" fill="#3C2510"/>
<g id="Vector_27" style="mix-blend-mode:multiply" opacity="0.81">
<path d="M9.85984 10.0691C9.27851 10.0761 8.70537 9.93163 8.19677 9.65001C7.68816 9.36838 7.26159 8.95926 6.95898 8.46285C7.26387 7.96848 7.69226 7.56204 8.20196 7.28354C8.71166 7.00505 9.2851 6.8641 9.86583 6.87457C10.4294 6.90207 10.9786 7.0618 11.469 7.34084C11.9594 7.61988 12.3772 8.0104 12.6888 8.48083C12.4006 8.97279 11.9867 9.37919 11.4895 9.65831C10.9924 9.93743 10.4299 10.0792 9.85984 10.0691Z" fill="#B5D334"/>
</g>
<path id="Vector_28" d="M9.20012 10.3507C8.67682 10.2642 8.17875 10.0644 7.74081 9.76518C7.30287 9.46597 6.93565 9.07463 6.66487 8.61855C6.63809 8.57098 6.62402 8.51731 6.62402 8.46272C6.62402 8.40813 6.63809 8.35446 6.66487 8.30689C6.99574 7.75676 7.46586 7.30362 8.02778 6.99319C8.5897 6.68277 9.22356 6.52603 9.8654 6.53881C10.0522 6.53963 10.2386 6.55567 10.4228 6.58676C10.9397 6.68957 11.4311 6.89403 11.8684 7.18829C12.3057 7.48255 12.6801 7.86074 12.97 8.3009C12.9996 8.35081 13.0151 8.40773 13.0151 8.46572C13.0151 8.52371 12.9996 8.58063 12.97 8.63054C12.6585 9.18395 12.2034 9.64307 11.6528 9.95952C11.1022 10.276 10.4764 10.438 9.84143 10.4286C9.62588 10.4203 9.41138 10.3943 9.20012 10.3507ZM7.35413 8.46872C7.82483 9.10708 8.52565 9.53704 9.30801 9.66742C9.49068 9.69351 9.67489 9.70753 9.85941 9.70937C10.3349 9.71834 10.8052 9.60979 11.2286 9.39337C11.6521 9.17694 12.0155 8.85933 12.2868 8.46872C11.8034 7.8267 11.1022 7.38337 10.3149 7.22207C10.1663 7.19819 10.016 7.18616 9.8654 7.18611C9.37371 7.17743 8.88743 7.2899 8.44948 7.51358C8.01152 7.73726 7.63534 8.06529 7.35413 8.46872Z" fill="#3C2510"/>
<path id="Vector_29" d="M26.1021 30.0274L31.0108 31.5258C31.0947 31.382 31.1726 31.2381 31.2505 31.0823C32.4912 28.5051 31.8019 25.4364 29.7581 23.2368C30.3798 22.8801 30.8807 22.3458 31.1966 21.7025C32.1376 19.7426 31.0947 17.2912 28.8711 16.2184C28.1987 15.8918 27.461 15.7217 26.7134 15.7209C27.2653 17.2264 27.4483 18.8421 27.2472 20.4328C27.046 22.0235 26.4666 23.5428 25.5574 24.8635C24.6482 26.1841 23.4357 27.2677 22.0215 28.0233C20.6074 28.7789 19.0327 29.1846 17.4295 29.2063C17.1538 29.2063 16.8781 29.2063 16.6084 29.2063C17.3738 31.3212 18.9475 33.0458 20.9837 34.0011C23.9804 35.4456 27.3188 35.074 29.5064 33.3179L26.1021 30.0274Z" fill="#B5D334"/>
<path id="Vector_30" d="M30.7111 22.2419C30.7017 22.456 30.6298 22.6627 30.5043 22.8364C30.3787 23.0101 30.205 23.1432 30.0046 23.2193C29.8043 23.2954 29.586 23.3111 29.3768 23.2645C29.1676 23.2178 28.9766 23.1109 28.8275 22.957C28.6784 22.803 28.5777 22.6088 28.5377 22.3982C28.4978 22.1876 28.5205 21.97 28.6029 21.7721C28.6853 21.5743 28.8239 21.4049 29.0015 21.2849C29.1791 21.165 29.388 21.0997 29.6023 21.0972C29.9002 21.105 30.1831 21.2293 30.3904 21.4433C30.5976 21.6573 30.7128 21.944 30.7111 22.2419Z" fill="#C4DF9B"/>
<path id="Vector_31" d="M30.2616 23.3028C30.7761 22.9247 31.1882 22.424 31.4603 21.8464C32.4792 19.7307 31.3704 17.0516 28.9849 15.9188C28.2661 15.5752 27.4801 15.395 26.6834 15.3914C26.6301 15.3913 26.5776 15.4043 26.5305 15.4294C26.4835 15.4545 26.4434 15.4909 26.4137 15.5352C26.3833 15.5782 26.3636 15.6278 26.3563 15.6799C26.349 15.7321 26.3543 15.7852 26.3718 15.8349C26.7529 16.8555 26.9557 17.9341 26.9711 19.0234C26.9886 20.3001 26.7543 21.5677 26.2818 22.7538C25.8093 23.94 25.1078 25.0214 24.2173 25.9364C23.3268 26.8514 22.2648 27.582 21.0919 28.0865C19.919 28.591 18.6582 28.8595 17.3815 28.8767C17.1358 28.8767 16.8781 28.8767 16.5904 28.8767C16.5354 28.871 16.4798 28.8795 16.429 28.9014C16.3783 28.9233 16.3339 28.9578 16.3003 29.0017C16.2666 29.0455 16.2447 29.0973 16.2368 29.152C16.2288 29.2068 16.235 29.2626 16.2547 29.3143C17.0592 31.5011 18.6939 33.2823 20.8038 34.2709C21.6191 34.6514 22.4851 34.9118 23.375 35.0441C24.4834 35.2521 25.6232 35.2241 26.7199 34.9618C27.8167 34.6994 28.8459 34.2087 29.7401 33.5217C29.7763 33.4924 29.8062 33.4561 29.8278 33.4148C29.8495 33.3736 29.8625 33.3284 29.866 33.282C29.8668 33.2339 29.8577 33.1861 29.8391 33.1418C29.8205 33.0974 29.7929 33.0574 29.7581 33.0242L27.3607 30.7527L30.9268 31.8435C30.9983 31.8658 31.0752 31.8631 31.1449 31.8359C31.2146 31.8086 31.273 31.7585 31.3104 31.6937C31.4123 31.5199 31.4902 31.37 31.5622 31.2262C32.7609 28.7149 32.2514 25.6402 30.2616 23.3028ZM30.0458 22.6315C29.9739 22.6914 29.902 22.7514 29.824 22.8053C29.7572 22.8318 29.6861 22.846 29.6143 22.8473C29.4623 22.8476 29.3159 22.7903 29.2046 22.6868C29.0934 22.5833 29.0256 22.4415 29.0149 22.2899C29.0154 22.1385 29.0733 21.9929 29.1767 21.8823C29.2839 21.7758 29.4273 21.7138 29.5783 21.7085H29.6802C29.812 21.7286 29.9323 21.7953 30.0192 21.8964C30.106 21.9976 30.1538 22.1266 30.1537 22.2599C30.1649 22.3929 30.1265 22.5252 30.0458 22.6315ZM30.9508 30.9385L30.8549 31.1363L26.198 29.7098C26.1263 29.6865 26.0488 29.6885 25.9783 29.7154C25.9079 29.7424 25.8489 29.7926 25.811 29.8578C25.7732 29.923 25.7588 29.9992 25.7703 30.0737C25.7818 30.1482 25.8185 30.2165 25.8743 30.2672L28.9969 33.264C27.3764 34.3664 25.3853 34.7823 23.4589 34.4207C22.6505 34.2846 21.8655 34.0344 21.1275 33.6775C19.3344 32.8356 17.9046 31.376 17.0998 29.566H17.4355C18.7995 29.5441 20.1459 29.2538 21.3977 28.7115C22.6496 28.1692 23.7823 27.3856 24.7313 26.4055C25.6802 25.4254 26.4268 24.2679 26.9283 22.9992C27.4299 21.7306 27.6766 20.3755 27.6544 19.0114C27.6375 18.0154 27.4802 17.0267 27.1869 16.0746C27.7219 16.1336 28.2428 16.2836 28.7272 16.5181C30.783 17.5071 31.7659 19.7786 30.8969 21.5767C30.841 21.691 30.7769 21.8012 30.7051 21.9063C30.637 21.709 30.517 21.5336 30.3578 21.3986C30.1985 21.2636 30.0059 21.174 29.8001 21.1391C29.7283 21.1332 29.6561 21.1332 29.5843 21.1391C29.4304 21.1414 29.2785 21.1744 29.1375 21.2362C28.9965 21.2979 28.8692 21.3872 28.7632 21.4987C28.6548 21.6081 28.5697 21.7383 28.513 21.8815C28.4563 22.0247 28.4293 22.1779 28.4335 22.3318C28.4357 22.6064 28.5349 22.8714 28.7138 23.0799C28.8926 23.2883 29.1394 23.4267 29.4105 23.4706H29.5064C30.215 24.2282 30.7634 25.1211 31.1186 26.0958C31.0271 26.0836 30.9344 26.0836 30.8429 26.0958C30.6901 26.1008 30.5399 26.1363 30.401 26.2001C30.2621 26.2639 30.1372 26.3548 30.0338 26.4674C29.93 26.5799 29.85 26.7122 29.7985 26.8564C29.747 27.0005 29.7251 27.1536 29.7341 27.3064C29.7393 27.3698 29.7649 27.4297 29.8071 27.4773C29.8492 27.5248 29.9056 27.5574 29.9679 27.5702H30.0338C30.0737 27.5686 30.1129 27.5592 30.1491 27.5423C30.1853 27.5254 30.2177 27.5015 30.2445 27.4719C30.2713 27.4423 30.2919 27.4076 30.3051 27.37C30.3184 27.3323 30.3239 27.2923 30.3215 27.2525C30.3187 27.179 30.3306 27.1057 30.3563 27.0367C30.382 26.9678 30.4211 26.9047 30.4713 26.8509C30.5198 26.7966 30.5788 26.7527 30.6447 26.7218C30.7107 26.6909 30.7822 26.6737 30.8549 26.6711C30.9521 26.668 31.0485 26.6901 31.1346 26.7353C31.2207 26.7804 31.2937 26.8471 31.3464 26.9289C31.669 28.2719 31.5297 29.6844 30.9508 30.9385Z" fill="#3C2510"/>
<path id="Vector_32" d="M14.9845 15.5112C15.3927 15.8766 15.66 16.3735 15.7399 16.9155C15.8198 17.4575 15.7074 18.0103 15.422 18.478C15.0959 19.0069 14.5741 19.3856 13.9702 19.5315C13.3662 19.6775 12.7291 19.5788 12.1975 19.2572C12.0763 19.1815 11.9619 19.0953 11.8559 18.9995C11.426 18.6077 11.1571 18.0701 11.1015 17.4912C11.046 16.9123 11.2077 16.3334 11.5552 15.867C11.9027 15.4007 12.4112 15.0802 12.9819 14.9679C13.5525 14.8556 14.1446 14.9596 14.6428 15.2595C14.7639 15.3332 14.8783 15.4174 14.9845 15.5112ZM12.2275 18.5799C12.3113 18.6511 12.3994 18.7171 12.4912 18.7777C12.8743 19.0638 13.3553 19.186 13.8285 19.1175C14.0628 19.0835 14.2882 19.0038 14.4916 18.8827C14.6951 18.7617 14.8728 18.6018 15.0144 18.4121C15.1561 18.2224 15.259 18.0067 15.3173 17.7772C15.3756 17.5477 15.3882 17.309 15.3542 17.0747C15.3203 16.8404 15.2405 16.6151 15.1195 16.4116C14.9984 16.2082 14.8385 16.0305 14.6488 15.8888C14.568 15.814 14.4796 15.7477 14.3851 15.691C14.002 15.4049 13.521 15.2827 13.0478 15.3513C12.5746 15.4198 12.148 15.6736 11.8619 16.0566C11.5757 16.4397 11.4535 16.9208 11.5221 17.394C11.5906 17.8672 11.8444 18.2938 12.2275 18.5799Z" fill="#3C2510"/>
</g>
</g>
</g>
</g>
<defs>
<clipPath id="clip0_389_8695">
<rect width="131" height="42.5539" fill="white"/>
</clipPath>
</defs>
</svg>
